<?xml version="1.0" encoding="utf-8"?>
<!DOCTYPE svg PUBLIC "-//W3C//DTD SVG 1.1//EN" "http://www.w3.org/Graphics/SVG/1.1/DTD/svg11.dtd">
<svg version="1.1" id="Layer_1" xmlns="http://www.w3.org/2000/svg" xmlns:xlink="http://www.w3.org/1999/xlink" x="0px" y="0px"
	 viewBox="0 0 706.7 190.9" enable-background="new 0 0 706.7 190.9" xml:space="preserve">
<g>
	<rect x="433.4" y="0" fill="#89C765" width="60.6" height="190.9"/>
	<polygon fill="#89C765" points="394.2,45.1 355.6,79.1 332.5,52.5 394.7,0 305.5,0 305.5,190.9 394.2,190.9 	"/>
</g>
<g>
	<path fill="#61BCB2" d="M618,123.1c-2.1,0.5-4.3,1-6.4,1.3c-2.1,0.4-4.4,0.5-6.7,0.5c-8.9,0-17.1-1.6-24.4-4.8
		c-7.3-3.2-13.6-7.6-18.8-13.1c-5.2-5.5-9.2-12.1-12.1-19.7c-2.9-7.6-4.3-15.7-4.3-24.3c0-9.8,1.8-18.7,5.5-26.7
		c3.7-8,8.7-14.8,15-20.5c6.3-5.7,13.8-10.1,22.4-13.3c2.8-1,5.7-1.9,8.6-2.5H525v190.9h48.5L618,123.1z"/>
	<path fill="#61BCB2" d="M594,86c5.6,5.6,13,8.4,22.1,8.4c9.1,0,16.5-2.8,22.1-8.4c5.6-5.6,8.5-12.7,8.5-21.3s-2.8-15.7-8.5-21.3
		c-5.6-5.6-13-8.4-22.1-8.4c-9.1,0-16.5,2.8-22.1,8.4c-5.6,5.6-8.4,12.7-8.4,21.3S588.4,80.3,594,86z"/>
	<path fill="#61BCB2" d="M635.2,0c3,0.7,5.8,1.5,8.7,2.5c8.7,3.1,16.2,7.6,22.5,13.3c6.3,5.7,11.4,12.6,15,20.5
		c3.7,8,5.5,16.9,5.5,26.7c0,6.8-0.6,13-1.9,18.6c-1.3,5.6-2.9,11-5,16c-2.1,5-4.5,9.8-7.2,14.3c-2.8,4.6-5.7,9.3-8.7,14.1
		l-41.5,64.8h84.1V0H635.2z"/>
</g>
<rect x="494" y="0" fill="#0EB48D" width="31" height="190.9"/>
<rect x="274.6" y="0" fill="#69A74C" width="30.9" height="190.9"/>
<g>
	<path fill="#67609E" d="M206.9,129.1c0-6.2-1.3-11.3-3.9-15.3c-2.6-4-5.9-7.2-10.1-9.6c-4.2-2.4-8.8-4-14-4.9
		c-5.1-0.9-10.3-1.3-15.4-1.3c-6.6,0-13.2,0.6-19.8,1.9c-6.7,1.2-13.1,2.9-19.3,5.1l2.1-104.1V0H0v190.9h158.6
		c-9.3-1.8-17.5-5.3-24.6-10.4c-11-8-18.5-20-22.6-36.2l41.8-9.6c1.1,6.7,3.9,12.2,8.5,16.4c4.6,4.2,10.4,6.3,17.3,6.3
		c8.5,0,15.3-2.7,20.4-8C204.4,144,206.9,137.3,206.9,129.1z"/>
	<path fill="#67609E" d="M240.5,0v0.8v1.8V36h-74.8l-0.8,29c4.1-1.4,9.7-2.1,16.8-2.1c9.6,0,18.4,1.4,26.3,4.3
		c8,2.8,14.9,7,20.6,12.4c5.8,5.4,10.2,12,13.4,19.7c3.2,7.7,4.8,16.4,4.8,25.9c0,10.6-1.8,20.1-5.5,28.5c-3.6,8.3-8.6,15.4-15,21.2
		c-6.4,5.8-14,10.2-22.8,13.2c-3.7,1.3-7.5,2.3-11.5,3h82.5V0H240.5z"/>
</g>
<g>
	<polygon fill="#B6B1D2" points="20.5,75.4 52.5,75.4 52.5,115.4 20.5,115.4 20.5,125.9 97.6,125.9 97.6,115.4 62.3,115.4 
		62.3,75.4 97.6,75.4 97.6,65 20.5,65 	"/>
	<polygon fill="#B6B1D2" points="87.8,0 87.8,34.7 63.1,34.7 63.1,0 53.3,0 53.3,34.7 30.3,34.7 30.3,0 20.5,0 20.5,45.2 97.6,45.2 
		97.6,0 	"/>
	<polygon fill="#B6B1D2" points="30.3,137 20.5,137 20.5,190.9 30.3,190.9 30.3,172.2 97.6,172.2 97.6,161.8 30.3,161.8 	"/>
</g>
</svg>
